<svg xmlns="http://www.w3.org/2000/svg" xmlns:xlink="http://www.w3.org/1999/xlink" width="1080" zoomAndPan="magnify" viewBox="0 0 810 809.999993" height="1080" preserveAspectRatio="xMidYMid meet" version="1.0"><defs><clipPath id="61e7b388bb"><path d="M 109.085938 122.316406 L 700.835938 122.316406 L 700.835938 714.066406 L 109.085938 714.066406 Z M 109.085938 122.316406 " clip-rule="nonzero"/></clipPath><clipPath id="80bcd88cfa"><path d="M 126 371 L 458 371 L 458 703 L 126 703 Z M 126 371 " clip-rule="nonzero"/></clipPath><clipPath id="9ca10b3ed8"><path d="M 329.589844 780.332031 L 49.042969 499.789062 L 302.542969 246.292969 L 583.085938 526.835938 Z M 329.589844 780.332031 " clip-rule="nonzero"/></clipPath><clipPath id="fb71e29d52"><path d="M 329.589844 780.332031 L 49.042969 499.789062 L 302.542969 246.292969 L 583.085938 526.835938 Z M 329.589844 780.332031 " clip-rule="nonzero"/></clipPath><clipPath id="43964c40d9"><path d="M 329.589844 780.332031 L 49.042969 499.789062 L 302.542969 246.292969 L 583.085938 526.835938 Z M 329.589844 780.332031 " clip-rule="nonzero"/></clipPath><clipPath id="7cb6d4829d"><path d="M 274.164062 344.136719 L 485.765625 344.136719 L 485.765625 555.742188 L 274.164062 555.742188 Z M 274.164062 344.136719 " clip-rule="nonzero"/></clipPath><clipPath id="5296d5d912"><path d="M 379.964844 344.136719 C 321.53125 344.136719 274.164062 391.503906 274.164062 449.9375 C 274.164062 508.371094 321.53125 555.742188 379.964844 555.742188 C 438.398438 555.742188 485.765625 508.371094 485.765625 449.9375 C 485.765625 391.503906 438.398438 344.136719 379.964844 344.136719 Z M 379.964844 344.136719 " clip-rule="nonzero"/></clipPath><clipPath id="d65ba63a16"><path d="M 316.078125 369.480469 L 443.851562 369.480469 L 443.851562 497.25 L 316.078125 497.25 Z M 316.078125 369.480469 " clip-rule="nonzero"/></clipPath><clipPath id="f361e6ee77"><path d="M 379.964844 369.480469 C 344.683594 369.480469 316.078125 398.082031 316.078125 433.363281 C 316.078125 468.648438 344.683594 497.25 379.964844 497.25 C 415.246094 497.25 443.851562 468.648438 443.851562 433.363281 C 443.851562 398.082031 415.246094 369.480469 379.964844 369.480469 Z M 379.964844 369.480469 " clip-rule="nonzero"/></clipPath><clipPath id="3a0510c6df"><path d="M 277 170 L 566.660156 170 L 566.660156 547 L 277 547 Z M 277 170 " clip-rule="nonzero"/></clipPath></defs><g clip-path="url(#61e7b388bb)"><path fill="#000000" d="M 404.960938 122.316406 C 241.492188 122.316406 109.085938 254.71875 109.085938 418.191406 C 109.085938 581.660156 241.492188 714.066406 404.960938 714.066406 C 568.433594 714.066406 700.835938 581.660156 700.835938 418.191406 C 700.835938 254.71875 568.433594 122.316406 404.960938 122.316406 Z M 404.960938 122.316406 " fill-opacity="1" fill-rule="nonzero"/></g><g clip-path="url(#80bcd88cfa)"><g clip-path="url(#9ca10b3ed8)"><g clip-path="url(#fb71e29d52)"><g clip-path="url(#43964c40d9)"><path fill="#ffffff" d="M 177.566406 422.460938 C 177.570312 549.121094 280.242188 651.792969 406.902344 651.792969 L 406.886719 702.726562 C 252.082031 702.734375 126.59375 577.25 126.605469 422.445312 Z M 203.039062 422.460938 L 254.03125 422.476562 C 254.019531 506.914062 322.464844 575.359375 406.886719 575.332031 L 406.886719 626.308594 C 294.304688 626.304688 203.058594 535.054688 203.039062 422.460938 Z M 279.488281 422.460938 L 330.433594 422.464844 C 330.433594 464.671875 364.644531 498.882812 406.851562 498.882812 L 406.871094 549.84375 C 336.515625 549.855469 279.476562 492.816406 279.488281 422.460938 Z M 370.84375 458.503906 C 350.941406 438.605469 350.941406 406.324219 370.824219 386.441406 C 390.722656 366.542969 423.007812 366.542969 442.90625 386.441406 C 462.789062 406.324219 462.789062 438.609375 442.890625 458.507812 C 423.007812 478.390625 390.726562 478.390625 370.84375 458.503906 Z M 370.84375 458.503906 " fill-opacity="1" fill-rule="nonzero"/></g></g></g></g><g clip-path="url(#7cb6d4829d)"><g clip-path="url(#5296d5d912)"><path fill="#000000" d="M 274.164062 344.136719 L 485.765625 344.136719 L 485.765625 555.742188 L 274.164062 555.742188 Z M 274.164062 344.136719 " fill-opacity="1" fill-rule="nonzero"/></g></g><g clip-path="url(#d65ba63a16)"><g clip-path="url(#f361e6ee77)"><path fill="#ffffff" d="M 316.078125 369.480469 L 443.851562 369.480469 L 443.851562 497.25 L 316.078125 497.25 Z M 316.078125 369.480469 " fill-opacity="1" fill-rule="nonzero"/></g></g><g clip-path="url(#3a0510c6df)"><path fill="#ffffff" d="M 528.8125 206.035156 C 517.652344 198.746094 505.640625 193.339844 492.785156 189.808594 L 454.742188 170.007812 L 442.976562 170.007812 L 442.976562 339.910156 C 441.234375 338.914062 439.464844 337.964844 437.667969 337.066406 C 435.871094 336.167969 434.050781 335.316406 432.210938 334.515625 C 430.367188 333.71875 428.503906 332.96875 426.621094 332.269531 C 424.738281 331.570312 422.839844 330.921875 420.921875 330.328125 C 419 329.734375 417.070312 329.191406 415.121094 328.699219 C 413.171875 328.210938 411.210938 327.773438 409.242188 327.390625 C 407.269531 327.007812 405.289062 326.679688 403.300781 326.40625 C 401.308594 326.128906 399.3125 325.910156 397.3125 325.742188 C 395.3125 325.578125 393.304688 325.464844 391.296875 325.410156 C 389.289062 325.351562 387.28125 325.347656 385.273438 325.402344 C 383.265625 325.453125 381.261719 325.5625 379.261719 325.722656 C 377.257812 325.882812 375.261719 326.101562 373.273438 326.371094 C 371.28125 326.640625 369.300781 326.964844 367.328125 327.34375 C 365.355469 327.722656 363.394531 328.15625 361.445312 328.640625 C 359.496094 329.125 357.5625 329.664062 355.640625 330.253906 C 353.722656 330.847656 351.820312 331.488281 349.933594 332.183594 C 348.050781 332.878906 346.1875 333.625 344.34375 334.417969 C 342.5 335.214844 340.675781 336.0625 338.878906 336.957031 C 337.082031 337.851562 335.308594 338.796875 333.5625 339.789062 C 331.816406 340.78125 330.097656 341.820312 328.410156 342.90625 C 326.71875 343.988281 325.058594 345.121094 323.429688 346.296875 C 321.804688 347.472656 320.207031 348.691406 318.644531 349.957031 C 317.085938 351.21875 315.558594 352.523438 314.066406 353.871094 C 312.578125 355.214844 311.125 356.601562 309.710938 358.027344 C 308.292969 359.453125 306.917969 360.914062 305.582031 362.414062 C 304.25 363.914062 302.953125 365.453125 301.703125 367.023438 C 300.453125 368.59375 299.242188 370.195312 298.078125 371.832031 C 296.914062 373.46875 295.796875 375.136719 294.722656 376.835938 C 293.648438 378.53125 292.621094 380.257812 291.644531 382.011719 C 290.664062 383.765625 289.734375 385.542969 288.851562 387.347656 C 287.96875 389.152344 287.136719 390.980469 286.351562 392.828125 C 285.570312 394.679688 284.839844 396.550781 284.15625 398.4375 C 283.476562 400.328125 282.847656 402.234375 282.269531 404.160156 C 281.695312 406.082031 281.167969 408.019531 280.699219 409.972656 C 280.226562 411.925781 279.808594 413.890625 279.445312 415.867188 C 279.082031 417.839844 278.769531 419.824219 278.515625 421.816406 C 278.257812 423.808594 278.054688 425.804688 277.910156 427.808594 C 277.761719 429.8125 277.667969 431.816406 277.632812 433.828125 C 277.59375 435.835938 277.609375 437.84375 277.683594 439.847656 C 277.753906 441.855469 277.878906 443.859375 278.058594 445.859375 C 278.242188 447.863281 278.476562 449.855469 278.765625 451.84375 C 279.054688 453.832031 279.398438 455.808594 279.796875 457.777344 C 280.191406 459.746094 280.644531 461.703125 281.148438 463.648438 C 281.652344 465.59375 282.207031 467.519531 282.816406 469.433594 C 283.425781 471.347656 284.085938 473.246094 284.796875 475.121094 C 285.511719 477 286.273438 478.859375 287.085938 480.695312 C 287.902344 482.53125 288.761719 484.34375 289.675781 486.132812 C 290.589844 487.921875 291.546875 489.6875 292.558594 491.421875 C 293.566406 493.160156 294.621094 494.867188 295.722656 496.546875 C 296.824219 498.226562 297.96875 499.875 299.160156 501.492188 C 300.351562 503.109375 301.585938 504.691406 302.867188 506.242188 C 304.144531 507.792969 305.460938 509.304688 306.824219 510.785156 C 308.183594 512.261719 309.582031 513.703125 311.019531 515.101562 C 312.460938 516.503906 313.9375 517.867188 315.449219 519.1875 C 316.960938 520.507812 318.507812 521.785156 320.089844 523.023438 C 321.675781 524.261719 323.289062 525.453125 324.9375 526.601562 C 326.585938 527.75 328.261719 528.855469 329.96875 529.910156 C 331.679688 530.96875 333.414062 531.976562 335.175781 532.941406 C 336.9375 533.902344 338.726562 534.816406 340.539062 535.683594 C 342.351562 536.546875 344.1875 537.363281 346.042969 538.128906 C 347.902344 538.894531 349.777344 539.609375 351.671875 540.269531 C 353.570312 540.933594 355.480469 541.542969 357.410156 542.101562 C 359.339844 542.660156 361.285156 543.167969 363.242188 543.621094 C 365.195312 544.074219 367.164062 544.472656 369.144531 544.816406 C 371.121094 545.164062 373.109375 545.453125 375.101562 545.691406 C 377.097656 545.929688 379.097656 546.113281 381.101562 546.242188 C 383.105469 546.367188 385.113281 546.441406 387.121094 546.460938 C 389.128906 546.480469 391.136719 546.445312 393.144531 546.355469 C 395.148438 546.265625 397.152344 546.117188 399.152344 545.917969 C 401.148438 545.71875 403.140625 545.464844 405.125 545.15625 C 407.109375 544.847656 409.085938 544.488281 411.050781 544.070312 C 413.015625 543.65625 414.96875 543.1875 416.90625 542.664062 C 418.847656 542.140625 420.769531 541.566406 422.679688 540.941406 C 424.585938 540.3125 426.476562 539.632812 428.347656 538.90625 C 430.21875 538.175781 432.070312 537.394531 433.898438 536.5625 C 435.726562 535.730469 437.53125 534.851562 439.3125 533.921875 C 441.09375 532.992188 442.847656 532.015625 444.574219 530.992188 C 446.300781 529.964844 448 528.894531 449.667969 527.777344 C 451.335938 526.660156 452.972656 525.5 454.578125 524.292969 C 456.1875 523.085938 457.757812 521.835938 459.292969 520.542969 C 460.832031 519.25 462.332031 517.917969 463.796875 516.542969 C 465.261719 515.167969 466.691406 513.757812 468.078125 512.304688 C 469.464844 510.851562 470.8125 509.363281 472.121094 507.839844 C 473.425781 506.3125 474.691406 504.753906 475.914062 503.160156 C 477.132812 501.5625 478.3125 499.9375 479.445312 498.28125 C 480.578125 496.621094 481.664062 494.933594 482.707031 493.214844 C 483.746094 491.496094 484.738281 489.753906 485.6875 487.980469 C 486.632812 486.210938 487.527344 484.414062 488.378906 482.59375 C 489.226562 480.773438 490.023438 478.929688 490.769531 477.066406 C 491.519531 475.199219 492.214844 473.316406 492.859375 471.414062 C 493.503906 469.511719 494.097656 467.59375 494.636719 465.660156 C 495.179688 463.726562 495.664062 461.777344 496.101562 459.816406 C 496.535156 457.855469 496.914062 455.882812 497.242188 453.902344 C 497.566406 451.921875 497.839844 449.933594 498.058594 447.933594 C 498.277344 445.9375 498.441406 443.9375 498.550781 441.933594 C 498.660156 439.925781 498.714844 437.917969 498.714844 435.910156 L 498.714844 251.308594 C 538.074219 268.25 548.332031 276.832031 550.066406 278.46875 L 566.179688 308.492188 L 566.648438 272.953125 C 567.007812 245.734375 553.925781 222.601562 528.8125 206.035156 Z M 493.046875 228.886719 L 480.324219 223.691406 L 480.324219 435.910156 C 480.324219 437.636719 480.277344 439.363281 480.179688 441.085938 C 480.082031 442.8125 479.9375 444.53125 479.742188 446.246094 C 479.550781 447.960938 479.308594 449.671875 479.019531 451.375 C 478.730469 453.078125 478.394531 454.769531 478.007812 456.453125 C 477.625 458.136719 477.191406 459.808594 476.710938 461.464844 C 476.234375 463.125 475.710938 464.769531 475.136719 466.398438 C 474.566406 468.027344 473.949219 469.640625 473.289062 471.238281 C 472.625 472.832031 471.921875 474.40625 471.171875 475.960938 C 470.417969 477.515625 469.625 479.050781 468.789062 480.558594 C 467.953125 482.070312 467.074219 483.558594 466.152344 485.019531 C 465.234375 486.480469 464.273438 487.914062 463.273438 489.320312 C 462.273438 490.726562 461.230469 492.105469 460.152344 493.453125 C 459.074219 494.804688 457.960938 496.121094 456.808594 497.40625 C 455.65625 498.691406 454.46875 499.945312 453.246094 501.164062 C 452.023438 502.382812 450.765625 503.566406 449.476562 504.714844 C 448.1875 505.863281 446.867188 506.976562 445.515625 508.050781 C 444.164062 509.125 442.78125 510.160156 441.371094 511.15625 C 439.960938 512.152344 438.523438 513.109375 437.0625 514.027344 C 435.597656 514.941406 434.109375 515.816406 432.59375 516.648438 C 431.082031 517.480469 429.546875 518.269531 427.988281 519.015625 C 426.433594 519.761719 424.855469 520.460938 423.257812 521.117188 C 421.660156 521.777344 420.046875 522.386719 418.414062 522.953125 C 416.785156 523.519531 415.140625 524.039062 413.476562 524.515625 C 411.816406 524.988281 410.144531 525.414062 408.460938 525.792969 C 406.777344 526.175781 405.082031 526.507812 403.378906 526.792969 C 401.675781 527.074219 399.964844 527.3125 398.25 527.5 C 396.535156 527.6875 394.8125 527.828125 393.089844 527.921875 C 391.363281 528.011719 389.636719 528.054688 387.910156 528.050781 C 386.183594 528.042969 384.460938 527.992188 382.734375 527.886719 C 381.011719 527.785156 379.292969 527.636719 377.578125 527.4375 C 375.863281 527.238281 374.152344 526.988281 372.453125 526.695312 C 370.75 526.398438 369.058594 526.054688 367.378906 525.664062 C 365.695312 525.277344 364.023438 524.839844 362.367188 524.355469 C 360.710938 523.871094 359.066406 523.339844 357.441406 522.761719 C 355.8125 522.1875 354.203125 521.566406 352.609375 520.898438 C 351.015625 520.230469 349.445312 519.519531 347.890625 518.761719 C 346.339844 518.007812 344.808594 517.210938 343.300781 516.367188 C 341.792969 515.527344 340.308594 514.640625 338.851562 513.71875 C 337.394531 512.792969 335.960938 511.828125 334.558594 510.820312 C 333.15625 509.816406 331.78125 508.773438 330.433594 507.6875 C 329.089844 506.605469 327.777344 505.488281 326.496094 504.332031 C 325.210938 503.171875 323.964844 501.980469 322.75 500.753906 C 321.53125 499.527344 320.351562 498.269531 319.210938 496.976562 C 318.066406 495.679688 316.957031 494.355469 315.886719 493 C 314.816406 491.644531 313.789062 490.261719 312.796875 488.847656 C 311.804688 487.433594 310.851562 485.996094 309.941406 484.527344 C 309.03125 483.0625 308.160156 481.570312 307.332031 480.054688 C 306.507812 478.539062 305.722656 477 304.980469 475.441406 C 304.242188 473.878906 303.546875 472.300781 302.894531 470.703125 C 302.242188 469.101562 301.636719 467.488281 301.074219 465.855469 C 300.511719 464.21875 300 462.574219 299.53125 460.910156 C 299.0625 459.25 298.640625 457.574219 298.265625 455.890625 C 297.890625 454.203125 297.566406 452.507812 297.285156 450.804688 C 297.007812 449.101562 296.777344 447.390625 296.59375 445.671875 C 296.410156 443.957031 296.277344 442.234375 296.191406 440.511719 C 296.105469 438.785156 296.070312 437.058594 296.078125 435.332031 C 296.089844 433.605469 296.152344 431.882812 296.257812 430.15625 C 296.367188 428.433594 296.523438 426.714844 296.726562 425 C 296.933594 423.285156 297.1875 421.578125 297.488281 419.878906 C 297.789062 418.175781 298.136719 416.488281 298.53125 414.804688 C 298.925781 413.125 299.371094 411.457031 299.859375 409.800781 C 300.351562 408.144531 300.886719 406.503906 301.46875 404.878906 C 302.050781 403.253906 302.675781 401.644531 303.347656 400.054688 C 304.023438 398.464844 304.738281 396.894531 305.5 395.34375 C 306.257812 393.792969 307.0625 392.265625 307.910156 390.761719 C 308.757812 389.253906 309.644531 387.777344 310.574219 386.320312 C 311.503906 384.867188 312.472656 383.4375 313.484375 382.039062 C 314.496094 380.636719 315.542969 379.265625 316.628906 377.925781 C 317.71875 376.582031 318.84375 375.273438 320.003906 373.996094 C 321.164062 372.714844 322.359375 371.472656 323.589844 370.261719 C 324.820312 369.050781 326.085938 367.875 327.382812 366.734375 C 328.679688 365.59375 330.007812 364.492188 331.367188 363.425781 C 332.726562 362.359375 334.113281 361.332031 335.53125 360.347656 C 336.945312 359.359375 338.390625 358.414062 339.859375 357.507812 C 341.328125 356.601562 342.824219 355.734375 344.34375 354.914062 C 345.859375 354.09375 347.402344 353.3125 348.964844 352.578125 C 350.527344 351.84375 352.109375 351.152344 353.710938 350.503906 C 355.3125 349.859375 356.929688 349.257812 358.5625 348.703125 C 360.199219 348.144531 361.847656 347.636719 363.511719 347.175781 C 365.175781 346.710938 366.851562 346.296875 368.539062 345.925781 C 370.222656 345.558594 371.921875 345.238281 373.625 344.964844 C 375.332031 344.691406 377.042969 344.464844 378.757812 344.289062 C 380.476562 344.113281 382.199219 343.984375 383.921875 343.902344 C 385.648438 343.824219 387.375 343.792969 389.101562 343.808594 C 390.828125 343.824219 392.550781 343.890625 394.277344 344.003906 C 396 344.117188 397.71875 344.28125 399.429688 344.492188 C 401.144531 344.703125 402.851562 344.960938 404.550781 345.265625 C 406.25 345.574219 407.941406 345.925781 409.621094 346.328125 C 411.296875 346.730469 412.964844 347.179688 414.621094 347.675781 C 416.273438 348.167969 417.914062 348.710938 419.535156 349.296875 C 421.160156 349.886719 422.765625 350.519531 424.355469 351.195312 C 425.941406 351.871094 427.511719 352.59375 429.058594 353.359375 C 430.605469 354.125 432.132812 354.933594 433.632812 355.785156 C 435.136719 356.636719 436.613281 357.53125 438.066406 358.464844 C 439.515625 359.402344 440.941406 360.375 442.339844 361.390625 C 443.734375 362.40625 445.101562 363.457031 446.441406 364.550781 L 461.5 376.859375 L 461.5 194.269531 L 485.273438 206.636719 L 486.308594 207.183594 L 487.4375 207.449219 C 498.765625 210.496094 509.332031 215.238281 519.136719 221.679688 C 532.183594 230.394531 540.878906 240.917969 545.152344 253.113281 C 528.246094 243.992188 510.851562 235.917969 492.972656 228.886719 Z M 493.046875 228.886719 " fill-opacity="1" fill-rule="nonzero"/></g><path fill="#ffffff" d="M 388.144531 362.613281 C 386.945312 362.613281 385.746094 362.640625 384.546875 362.699219 C 383.347656 362.757812 382.152344 362.847656 380.960938 362.964844 C 379.765625 363.082031 378.574219 363.230469 377.390625 363.40625 C 376.203125 363.582031 375.019531 363.785156 373.84375 364.019531 C 372.667969 364.253906 371.496094 364.515625 370.335938 364.808594 C 369.171875 365.097656 368.015625 365.417969 366.867188 365.769531 C 365.71875 366.117188 364.578125 366.492188 363.449219 366.894531 C 362.320312 367.300781 361.203125 367.730469 360.09375 368.191406 C 358.984375 368.648438 357.890625 369.136719 356.804688 369.648438 C 355.71875 370.160156 354.648438 370.699219 353.589844 371.265625 C 352.535156 371.832031 351.488281 372.421875 350.460938 373.039062 C 349.433594 373.65625 348.417969 374.296875 347.421875 374.964844 C 346.425781 375.632812 345.445312 376.320312 344.480469 377.035156 C 343.515625 377.75 342.570312 378.488281 341.644531 379.25 C 340.714844 380.011719 339.808594 380.792969 338.917969 381.597656 C 338.03125 382.40625 337.160156 383.230469 336.3125 384.082031 C 335.464844 384.929688 334.640625 385.796875 333.832031 386.6875 C 333.027344 387.574219 332.246094 388.484375 331.484375 389.410156 C 330.722656 390.335938 329.984375 391.28125 329.269531 392.246094 C 328.554688 393.210938 327.863281 394.191406 327.199219 395.1875 C 326.53125 396.183594 325.890625 397.199219 325.273438 398.226562 C 324.65625 399.257812 324.066406 400.300781 323.5 401.359375 C 322.933594 402.414062 322.394531 403.488281 321.882812 404.570312 C 321.371094 405.65625 320.882812 406.753906 320.425781 407.859375 C 319.964844 408.96875 319.535156 410.085938 319.128906 411.21875 C 318.726562 412.347656 318.347656 413.484375 318 414.632812 C 317.652344 415.78125 317.332031 416.9375 317.042969 418.101562 C 316.75 419.265625 316.488281 420.433594 316.253906 421.609375 C 316.019531 422.789062 315.8125 423.96875 315.636719 425.15625 C 315.460938 426.34375 315.316406 427.53125 315.199219 428.726562 C 315.082031 429.921875 314.992188 431.117188 314.933594 432.3125 C 314.875 433.511719 314.84375 434.710938 314.84375 435.910156 C 314.84375 437.109375 314.875 438.308594 314.933594 439.507812 C 314.992188 440.707031 315.082031 441.902344 315.199219 443.09375 C 315.316406 444.289062 315.460938 445.480469 315.636719 446.664062 C 315.8125 447.851562 316.019531 449.035156 316.253906 450.210938 C 316.488281 451.386719 316.75 452.558594 317.042969 453.722656 C 317.332031 454.882812 317.652344 456.039062 318 457.1875 C 318.347656 458.335938 318.726562 459.476562 319.128906 460.605469 C 319.535156 461.734375 319.964844 462.851562 320.425781 463.960938 C 320.882812 465.070312 321.371094 466.164062 321.882812 467.25 C 322.394531 468.335938 322.933594 469.40625 323.5 470.464844 C 324.066406 471.523438 324.65625 472.566406 325.273438 473.59375 C 325.890625 474.621094 326.53125 475.636719 327.199219 476.632812 C 327.863281 477.632812 328.554688 478.613281 329.269531 479.574219 C 329.984375 480.539062 330.722656 481.484375 331.484375 482.410156 C 332.246094 483.339844 333.027344 484.246094 333.832031 485.136719 C 334.640625 486.023438 335.464844 486.894531 336.3125 487.742188 C 337.160156 488.589844 338.03125 489.417969 338.917969 490.222656 C 339.808594 491.027344 340.714844 491.8125 341.644531 492.570312 C 342.570312 493.332031 343.515625 494.070312 344.480469 494.785156 C 345.445312 495.5 346.425781 496.191406 347.421875 496.855469 C 348.417969 497.523438 349.433594 498.164062 350.460938 498.78125 C 351.488281 499.398438 352.535156 499.988281 353.589844 500.554688 C 354.648438 501.121094 355.71875 501.660156 356.804688 502.171875 C 357.890625 502.683594 358.984375 503.171875 360.09375 503.628906 C 361.203125 504.089844 362.320312 504.519531 363.449219 504.925781 C 364.578125 505.328125 365.71875 505.707031 366.867188 506.054688 C 368.015625 506.402344 369.171875 506.722656 370.335938 507.011719 C 371.496094 507.304688 372.667969 507.566406 373.84375 507.800781 C 375.019531 508.035156 376.203125 508.242188 377.390625 508.417969 C 378.574219 508.59375 379.765625 508.738281 380.960938 508.855469 C 382.152344 508.976562 383.347656 509.0625 384.546875 509.121094 C 385.746094 509.179688 386.945312 509.210938 388.144531 509.210938 C 389.34375 509.210938 390.542969 509.179688 391.742188 509.121094 C 392.9375 509.0625 394.136719 508.976562 395.328125 508.855469 C 396.523438 508.738281 397.714844 508.59375 398.898438 508.417969 C 400.085938 508.242188 401.269531 508.035156 402.445312 507.800781 C 403.621094 507.566406 404.789062 507.304688 405.953125 507.011719 C 407.117188 506.722656 408.273438 506.402344 409.421875 506.054688 C 410.570312 505.707031 411.707031 505.328125 412.839844 504.925781 C 413.96875 504.519531 415.085938 504.089844 416.195312 503.628906 C 417.304688 503.171875 418.398438 502.683594 419.484375 502.171875 C 420.566406 501.660156 421.640625 501.121094 422.699219 500.554688 C 423.753906 499.988281 424.796875 499.398438 425.828125 498.78125 C 426.855469 498.164062 427.871094 497.523438 428.867188 496.855469 C 429.863281 496.191406 430.84375 495.5 431.808594 494.785156 C 432.773438 494.070312 433.71875 493.332031 434.644531 492.570312 C 435.570312 491.8125 436.480469 491.027344 437.367188 490.222656 C 438.257812 489.417969 439.125 488.589844 439.976562 487.742188 C 440.824219 486.894531 441.648438 486.023438 442.457031 485.136719 C 443.261719 484.246094 444.042969 483.339844 444.804688 482.410156 C 445.566406 481.484375 446.304688 480.539062 447.019531 479.574219 C 447.734375 478.613281 448.425781 477.632812 449.089844 476.632812 C 449.757812 475.636719 450.398438 474.621094 451.015625 473.59375 C 451.632812 472.566406 452.222656 471.523438 452.789062 470.464844 C 453.355469 469.40625 453.894531 468.335938 454.40625 467.25 C 454.917969 466.164062 455.40625 465.070312 455.863281 463.960938 C 456.324219 462.851562 456.753906 461.734375 457.160156 460.605469 C 457.5625 459.476562 457.9375 458.335938 458.289062 457.1875 C 458.636719 456.039062 458.957031 454.882812 459.246094 453.722656 C 459.539062 452.558594 459.800781 451.386719 460.035156 450.210938 C 460.269531 449.035156 460.472656 447.851562 460.648438 446.664062 C 460.828125 445.480469 460.972656 444.289062 461.089844 443.09375 C 461.207031 441.902344 461.296875 440.707031 461.355469 439.507812 C 461.414062 438.308594 461.445312 437.109375 461.445312 435.910156 C 461.441406 434.710938 461.410156 433.511719 461.351562 432.316406 C 461.289062 431.117188 461.199219 429.921875 461.082031 428.730469 C 460.960938 427.535156 460.8125 426.347656 460.636719 425.160156 C 460.457031 423.976562 460.25 422.792969 460.015625 421.617188 C 459.78125 420.441406 459.515625 419.273438 459.226562 418.109375 C 458.933594 416.949219 458.609375 415.792969 458.261719 414.644531 C 457.914062 413.5 457.535156 412.359375 457.132812 411.230469 C 456.726562 410.101562 456.292969 408.984375 455.832031 407.878906 C 455.375 406.769531 454.886719 405.675781 454.375 404.589844 C 453.859375 403.507812 453.320312 402.4375 452.753906 401.378906 C 452.191406 400.324219 451.597656 399.28125 450.980469 398.25 C 450.363281 397.222656 449.722656 396.210938 449.054688 395.214844 C 448.390625 394.21875 447.699219 393.238281 446.984375 392.273438 C 446.269531 391.3125 445.53125 390.367188 444.769531 389.441406 C 444.011719 388.511719 443.226562 387.605469 442.421875 386.71875 C 441.617188 385.828125 440.789062 384.960938 439.941406 384.113281 C 439.09375 383.265625 438.226562 382.4375 437.335938 381.632812 C 436.449219 380.828125 435.542969 380.046875 434.613281 379.285156 C 433.6875 378.523438 432.742188 377.785156 431.78125 377.070312 C 430.816406 376.355469 429.835938 375.664062 428.839844 375 C 427.84375 374.332031 426.832031 373.691406 425.804688 373.074219 C 424.773438 372.457031 423.730469 371.867188 422.675781 371.300781 C 421.617188 370.734375 420.546875 370.195312 419.464844 369.679688 C 418.378906 369.167969 417.285156 368.679688 416.175781 368.222656 C 415.070312 367.761719 413.953125 367.328125 412.824219 366.925781 C 411.695312 366.519531 410.554688 366.140625 409.410156 365.792969 C 408.261719 365.445312 407.105469 365.121094 405.945312 364.832031 C 404.78125 364.539062 403.613281 364.273438 402.4375 364.039062 C 401.261719 363.804688 400.078125 363.597656 398.894531 363.417969 C 397.707031 363.242188 396.519531 363.09375 395.324219 362.972656 C 394.132812 362.855469 392.9375 362.765625 391.738281 362.703125 C 390.542969 362.644531 389.34375 362.613281 388.144531 362.613281 Z M 388.144531 490.742188 C 386.347656 490.742188 384.558594 490.65625 382.769531 490.480469 C 380.984375 490.304688 379.207031 490.039062 377.445312 489.691406 C 375.683594 489.339844 373.945312 488.902344 372.226562 488.382812 C 370.507812 487.863281 368.820312 487.257812 367.160156 486.570312 C 365.5 485.882812 363.878906 485.117188 362.296875 484.269531 C 360.710938 483.421875 359.171875 482.5 357.679688 481.503906 C 356.1875 480.503906 354.746094 479.4375 353.359375 478.296875 C 351.96875 477.15625 350.640625 475.953125 349.371094 474.683594 C 348.101562 473.414062 346.898438 472.085938 345.757812 470.695312 C 344.617188 469.308594 343.550781 467.867188 342.550781 466.375 C 341.554688 464.882812 340.632812 463.34375 339.785156 461.757812 C 338.9375 460.175781 338.171875 458.554688 337.484375 456.894531 C 336.796875 455.234375 336.195312 453.546875 335.671875 451.828125 C 335.152344 450.109375 334.714844 448.371094 334.363281 446.609375 C 334.015625 444.847656 333.75 443.074219 333.574219 441.285156 C 333.398438 439.5 333.3125 437.707031 333.3125 435.910156 C 333.3125 434.113281 333.398438 432.324219 333.574219 430.535156 C 333.75 428.75 334.015625 426.972656 334.363281 425.214844 C 334.714844 423.453125 335.152344 421.710938 335.671875 419.992188 C 336.195312 418.273438 336.796875 416.585938 337.484375 414.925781 C 338.171875 413.269531 338.9375 411.644531 339.785156 410.0625 C 340.632812 408.480469 341.554688 406.941406 342.550781 405.445312 C 343.550781 403.953125 344.617188 402.511719 345.757812 401.125 C 346.898438 399.738281 348.101562 398.40625 349.371094 397.136719 C 350.640625 395.867188 351.96875 394.664062 353.359375 393.523438 C 354.746094 392.382812 356.1875 391.316406 357.679688 390.320312 C 359.171875 389.320312 360.710938 388.398438 362.296875 387.550781 C 363.878906 386.707031 365.5 385.9375 367.160156 385.25 C 368.820312 384.5625 370.507812 383.960938 372.226562 383.4375 C 373.945312 382.917969 375.683594 382.480469 377.445312 382.132812 C 379.207031 381.78125 380.984375 381.515625 382.769531 381.339844 C 384.558594 381.164062 386.347656 381.078125 388.144531 381.078125 C 389.941406 381.078125 391.730469 381.164062 393.519531 381.339844 C 395.304688 381.515625 397.082031 381.78125 398.839844 382.132812 C 400.601562 382.480469 402.34375 382.917969 404.0625 383.4375 C 405.78125 383.960938 407.46875 384.5625 409.128906 385.25 C 410.789062 385.9375 412.410156 386.707031 413.992188 387.550781 C 415.578125 388.398438 417.113281 389.320312 418.609375 390.320312 C 420.101562 391.316406 421.542969 392.382812 422.929688 393.523438 C 424.320312 394.664062 425.648438 395.867188 426.917969 397.136719 C 428.1875 398.40625 429.390625 399.738281 430.53125 401.125 C 431.671875 402.511719 432.738281 403.953125 433.738281 405.445312 C 434.734375 406.941406 435.65625 408.480469 436.503906 410.0625 C 437.347656 411.644531 438.117188 413.269531 438.804688 414.925781 C 439.492188 416.585938 440.09375 418.273438 440.617188 419.992188 C 441.136719 421.710938 441.574219 423.453125 441.925781 425.214844 C 442.273438 426.972656 442.539062 428.75 442.714844 430.535156 C 442.890625 432.324219 442.976562 434.113281 442.976562 435.910156 C 442.976562 437.707031 442.886719 439.496094 442.707031 441.28125 C 442.527344 443.070312 442.261719 444.84375 441.910156 446.601562 C 441.558594 448.363281 441.121094 450.101562 440.601562 451.820312 C 440.078125 453.535156 439.472656 455.226562 438.785156 456.882812 C 438.09375 458.539062 437.328125 460.160156 436.480469 461.742188 C 435.632812 463.328125 434.710938 464.863281 433.714844 466.355469 C 432.714844 467.847656 431.648438 469.289062 430.507812 470.675781 C 429.367188 472.0625 428.164062 473.390625 426.894531 474.660156 C 425.625 475.929688 424.296875 477.136719 422.910156 478.273438 C 421.523438 479.414062 420.082031 480.480469 418.589844 481.480469 C 417.097656 482.476562 415.558594 483.398438 413.976562 484.246094 C 412.394531 485.09375 410.773438 485.863281 409.117188 486.550781 C 407.457031 487.238281 405.769531 487.84375 404.054688 488.367188 C 402.335938 488.890625 400.597656 489.324219 398.835938 489.679688 C 397.078125 490.03125 395.304688 490.296875 393.515625 490.472656 C 391.730469 490.652344 389.941406 490.742188 388.144531 490.742188 Z M 388.144531 490.742188 " fill-opacity="1" fill-rule="nonzero"/></svg>